<svg width="418" height="164" viewBox="0 0 418 164" fill="none" xmlns="http://www.w3.org/2000/svg">
<g clip-path="url(#clip0_82_429)">
<path d="M50.07 125.072C22.46 125.072 0 102.602 0 74.9919C0 47.3819 22.46 24.9219 50.07 24.9219C77.68 24.9219 100.14 47.3819 100.14 74.9919C100.14 102.602 77.68 125.062 50.07 125.062V125.072ZM50.07 40.9219C31.28 40.9219 16 56.2119 16 74.9919C16 93.7719 31.29 109.062 50.07 109.062C68.85 109.062 84.14 93.7719 84.14 74.9919C84.14 56.2119 68.85 40.9219 50.07 40.9219Z" fill="#ED1C24"/>
<path d="M100.15 25.3203H84.1499V124.53H100.15V25.3203Z" fill="#ED1C24"/>
<path d="M367.27 125.07C339.66 125.07 317.2 102.61 317.2 74.9997C317.2 47.3897 339.66 24.9297 367.27 24.9297C394.88 24.9297 417.34 47.3897 417.34 74.9997C417.34 102.61 394.88 125.07 367.27 125.07ZM367.27 40.9197C348.48 40.9197 333.2 56.2097 333.2 74.9897C333.2 93.7697 348.49 109.06 367.27 109.06C386.05 109.06 401.34 93.7697 401.34 74.9897C401.34 56.2097 386.05 40.9197 367.27 40.9197Z" fill="#ED1C24"/>
<path d="M417.34 25.3203H401.34V124.53H417.34V25.3203Z" fill="#ED1C24"/>
<path d="M156.37 125.07C128.76 125.07 106.3 102.61 106.3 74.9997C106.3 47.3897 128.76 24.9297 156.37 24.9297C183.98 24.9297 206.44 47.3897 206.44 74.9997C206.44 102.61 183.98 125.07 156.37 125.07ZM156.37 40.9197C137.58 40.9197 122.3 56.2097 122.3 74.9897C122.3 93.7697 137.59 109.06 156.37 109.06C175.15 109.06 190.44 93.7697 190.44 74.9897C190.44 56.2097 175.15 40.9197 156.37 40.9197Z" fill="#ED1C24"/>
<path d="M206.45 0H190.45V123.93H206.45V0Z" fill="#ED1C24"/>
<path d="M262.57 125.07C234.96 125.07 212.5 102.61 212.5 74.9997C212.5 47.3897 234.96 24.9297 262.57 24.9297C290.18 24.9297 312.64 47.3897 312.64 74.9997C312.64 102.61 290.18 125.07 262.57 125.07ZM262.57 40.9197C243.78 40.9197 228.5 56.2097 228.5 74.9897C228.5 93.7697 243.79 109.06 262.57 109.06C281.35 109.06 296.64 93.7697 296.64 74.9897C296.64 56.2097 281.35 40.9197 262.57 40.9197Z" fill="#ED1C24"/>
<path d="M312.65 0H296.65V123.93H312.65V0Z" fill="#ED1C24"/>
<path d="M303.12 146.669H296.65V141.949H315.52V146.669H309.08V163.009H303.12V146.669Z" fill="white"/>
<path d="M323.44 141.949H329.4V163.009H323.44V141.949Z" fill="white"/>
<path d="M358.59 163.009L358.53 151.849L353.11 160.939H350.46L345.07 152.149V163.009H339.56V141.949H344.46L351.86 154.109L359.08 141.949H363.98L364.04 163.009H358.56H358.59Z" fill="white"/>
<path d="M391.16 158.409V163.009H374.25V141.949H390.77V146.549H380.15V150.099H389.51V154.549H380.15V158.399H391.16V158.409Z" fill="white"/>
<path d="M403.05 162.8C401.44 162.38 400.14 161.82 399.14 161.11L401.1 156.72C402.04 157.34 403.14 157.84 404.38 158.22C405.62 158.6 406.85 158.79 408.05 158.79C410.34 158.79 411.48 158.22 411.48 157.08C411.48 156.48 411.15 156.03 410.5 155.74C409.85 155.45 408.8 155.14 407.36 154.82C405.78 154.48 404.45 154.11 403.39 153.72C402.33 153.33 401.41 152.7 400.65 151.84C399.89 150.98 399.51 149.81 399.51 148.35C399.51 147.07 399.86 145.91 400.56 144.87C401.26 143.84 402.31 143.02 403.7 142.42C405.09 141.82 406.8 141.52 408.83 141.52C410.21 141.52 411.58 141.68 412.92 141.99C414.26 142.3 415.45 142.76 416.47 143.36L414.63 147.78C412.62 146.7 410.68 146.15 408.79 146.15C407.61 146.15 406.74 146.33 406.2 146.68C405.66 147.03 405.39 147.49 405.39 148.05C405.39 148.61 405.71 149.03 406.35 149.31C406.99 149.59 408.02 149.88 409.45 150.18C411.05 150.52 412.38 150.89 413.44 151.28C414.49 151.67 415.41 152.29 416.18 153.15C416.95 154 417.34 155.16 417.34 156.63C417.34 157.89 416.99 159.04 416.29 160.06C415.59 161.08 414.53 161.9 413.13 162.51C411.73 163.12 410.02 163.43 408.01 163.43C406.3 163.43 404.65 163.22 403.05 162.8Z" fill="white"/>
</g>
<defs>
<clipPath id="clip0_82_429">
<rect width="417.34" height="163.43" fill="white"/>
</clipPath>
</defs>
</svg>
